<?xml version="1.0" encoding="utf-8"?>
<!-- Generator: Adobe Illustrator 13.0.2, SVG Export Plug-In . SVG Version: 6.00 Build 14948)  -->
<!DOCTYPE svg PUBLIC "-//W3C//DTD SVG 1.1//EN" "http://www.w3.org/Graphics/SVG/1.1/DTD/svg11.dtd">
<svg version="1.1" id="Layer_1" xmlns="http://www.w3.org/2000/svg" xmlns:xlink="http://www.w3.org/1999/xlink" x="0px" y="0px"
	 width="694.201px" height="720.012px" viewBox="0 0 694.201 720.012" enable-background="new 0 0 694.201 720.012"
	 xml:space="preserve">
<g>
	<g>
		<g>
			<g>
				<g>
					<path fill="#00538D" d="M536.295,369.95c0-18.078-45.219-74.328-34.156-104.469c20.078-43.969,53.25-54.438,75.844-69.828
						c34.656-23.609,63.641-62.953,59.281-81.875c-3.016-13.062-6.781-15.328-32.156-31.891c-8.719-5.703-14.312,1.5-5.016,8.281
						c9.281,6.781,23.609,13.562,26.625,23.609c3,10.047-9.797,34.656-43.719,62.797c-19.484,16.172-75.078,30.625-96.922,74.828
						c-23.906,48.344,33.297,125.703,33.141,125.578C528.248,383.012,535.795,379.497,536.295,369.95z"/>
					<path fill="#00538D" d="M403.561,113.403c40.672-18.844,82.516,2.891,128.203-0.625c21.797-1.688,55.25-35.672,45.719-45.219
						c-8.531-8.531-12.062-6.531-42.453,21.359c-17.297,15.875-77.719-9.172-131.844,12.422
						c-9.266,3.688-22.125,13.062-25.625,22.234c-3.016,7.906,1.188,9.609,4.516,7.156
						C382.076,130.731,395.451,117.153,403.561,113.403z"/>
					<path fill="#00538D" d="M417.373,185.918c-4.969-3.094-23.344-19.281-28.578-23.562
						c-22.547-18.438-48.156-28.797-62.188-37.047c-93.344-36.391-119.328-61.266-157.766-86.125
						c-17.766-11.5-36.109-27.75-43.328-36.172c-6.781-7.906-14.094,1.531-7.266,7.938c33.266,31.25,41.562,60.641,87.531,91.531
						c113.766,60.641,120.547,38.797,172.547,70.438c4.078,2.5,19.328,16.766,30.125,21.859
						C419.264,199.856,421.014,187.918,417.373,185.918L417.373,185.918z"/>
					<path fill="#00538D" d="M129.107,73.465c0.25,4.719,1.5,11.672,7.875,25.672c15.109,33.203,26.406,48.922,59.172,77.938
						c32.781,24.672,88.547,50.672,129.047,86.078c16.75,12.234,25.344,37.625,25.984,56.312
						c1.703,49.922-45.734,50.906-27.125,70.656c6.219,6.594,25.625-0.188,36.172-8.297c9.031-6.969,19.469-19.719,19.344-57.578
						c-0.203-49.734-33.344-66.312-41.016-72.781c-43.688-37.859-121.891-72.172-140.5-89.656
						c-49.359-46.344-48.516-62.094-58.344-91.734C139.842,70.418,131.232,62.918,129.107,73.465
						C129.107,73.465,133.889,62.731,129.107,73.465z"/>
					<path fill="#0093B0" d="M606.607,393.559c-30.141,11.562-73.859,14.656-96.438,4.016c-46.922-22.109-96.703-10.172-127.578-3
						c-49.734,18.578-81.25,38.438-205.953-6.031c-71.828-25.625-120.562,19.094-155.219,2c-6.266-3.078-33.281-15.688-15.391,0.203
						c17.891,15.875,47.656,14.234,81,6.516c33.359-7.719,66.5-7.719,127.781,19.406s110,23.609,152.203,4.016
						c45.516-21.125,90.031-29.734,125.578-15.062c35.719,14.75,80.375,14.062,120.547-3.516
						c20.609-12.562,27.141-15.578,38.672-28.641c11.562-13.047,2.016-9.031-5.516-3.516
						C638.764,375.481,622.076,387.637,606.607,393.559z"/>
					<path fill="#0093B0" d="M144.732,437.012c37.562-8.219,102.859,24.375,126.156,31.641
						c33.578,10.562,93.109,12.828,137.562-7.531c29.812-13.641,60.266-25.281,91.906-21.5c38,4.516,47.328,13.75,79.734,13.75
						c36.922,0,72.781-21.688,81.547-31.625c11.312-12.812,4.281-12.078-5.516-5.297c-9.344,6.469-23.094,12.703-33.875,17.203
						c-25.203,10.547-53.297,13.156-93.25-1.906c-30.766-11.625-73.203-4.656-122.5,12.75
						c-49.281,17.375-99.75,18.141-120.109,10.609c-128.625-47.641-125.844-32.406-177.062-20.359
						c-8.969,2.125-38.438,7.531-55.016-3c-16.578-10.547-18.062-8.297-7.516,3C57.326,446.059,76.17,452.075,144.732,437.012z"/>
					<path fill="#0093B0" d="M504.904,482.231c-43.891-16.469-94.203,16.578-139.406,29.375
						c-45.203,12.812-95.297-24.984-137.312-33.594c-42-8.594-77.297,19.281-106,0.438c-28.688-18.828-21.141-5.266-9.344,5.141
						c3.125,2.781,29.016,18.844,53,13.703s48.969-20.344,121.312,20.344c72.312,40.688,110.734,0.75,155.969-17.328
						c53.484-21.859,85.875,25.609,148.422,7.531c14.266-5.906,30.328-11.562,41.438-27.125
						c11.312-15.828,10.906-24.516-7.531-6.781C585.514,512.356,541.076,495.793,504.904,482.231z"/>
					<path fill="#00538D" d="M32.779,633.215c0.172,6.266,0.922,8.25,2.984,8.859c1.453,0.375,3.125,0.453,3.812,0.453
						c0.391,0,0.609,0.156,0.609,0.453c0,0.469-0.453,0.609-1.359,0.609c-4.359,0-7.406-0.234-8.094-0.234
						c-0.703,0-3.891,0.234-7.328,0.234c-0.766,0-1.219-0.078-1.219-0.609c0-0.297,0.234-0.453,0.609-0.453
						c0.609,0,1.984-0.078,3.125-0.453c1.906-0.547,2.281-2.75,2.281-9.688l0.094-43.734c0-2.984,0.219-3.828,0.828-3.828
						s1.922,1.688,2.672,2.453c1.156,1.297,12.516,13.578,24.266,26.172c7.562,8.094,15.891,17.406,18.328,19.922l-0.844-38.766
						c-0.078-4.969-0.609-6.641-2.984-7.25c-1.359-0.312-3.125-0.391-3.734-0.391c-0.531,0-0.609-0.234-0.609-0.531
						c0-0.469,0.609-0.531,1.531-0.531c3.422,0,7.094,0.219,7.938,0.219s3.359-0.219,6.484-0.219c0.844,0,1.375,0.062,1.375,0.531
						c0,0.297-0.297,0.531-0.844,0.531c-0.375,0-0.906,0-1.828,0.234c-2.516,0.531-2.828,2.219-2.828,6.797l-0.156,44.719
						c0,5.031-0.141,5.422-0.672,5.422c-0.625,0-1.531-0.844-5.578-4.891c-0.844-0.766-11.828-11.984-19.922-20.672
						c-8.859-9.547-17.469-19.172-19.922-21.922L32.779,633.215z"/>
					<path fill="#00538D" d="M108.857,599.372c0.719-2,0.969-2.359,1.328-2.359c0.375,0,0.609,0.297,1.344,2.172
						c0.906,2.297,10.391,27.266,14.078,36.453c2.172,5.375,3.922,6.344,5.203,6.703c0.891,0.297,1.797,0.359,2.406,0.359
						c0.375,0,0.609,0.062,0.609,0.359c0,0.375-0.531,0.484-1.219,0.484c-0.906,0-5.312,0-9.469-0.109
						c-1.156-0.078-1.812-0.078-1.812-0.422c0-0.25,0.172-0.375,0.406-0.438c0.359-0.125,0.719-0.656,0.359-1.625l-5.609-14.859
						c-0.109-0.25-0.25-0.375-0.547-0.375h-12.984c-0.312,0-0.5,0.188-0.609,0.484l-3.625,10.703
						c-0.547,1.516-0.859,2.953-0.859,4.047c0,1.203,1.266,1.75,2.312,1.75h0.594c0.422,0,0.609,0.125,0.609,0.359
						c0,0.375-0.375,0.484-0.906,0.484c-1.453,0-4.047-0.188-4.719-0.188s-3.984,0.188-6.828,0.188
						c-0.781,0-1.156-0.109-1.156-0.484c0-0.234,0.25-0.359,0.547-0.359c0.438,0,1.266-0.062,1.766-0.125
						c2.781-0.359,3.984-2.656,5.062-5.672L108.857,599.372z M115.154,623.543c0.312,0,0.312-0.172,0.234-0.422l-5.734-16.312
						c-0.297-0.906-0.609-0.906-0.906,0l-5.328,16.312c-0.109,0.297,0,0.422,0.188,0.422H115.154z"/>
					<path fill="#00538D" d="M155.326,626.028c0,5.797,0,10.578,0.297,13.109c0.188,1.75,0.547,3.078,2.359,3.312
						c0.859,0.125,2.172,0.25,2.719,0.25c0.359,0,0.5,0.188,0.5,0.359c0,0.297-0.328,0.484-0.984,0.484
						c-3.312,0-7.125-0.188-7.438-0.188c-0.297,0-4.094,0.188-5.906,0.188c-0.672,0-0.969-0.109-0.969-0.484
						c0-0.172,0.109-0.359,0.469-0.359c0.547,0,1.266-0.125,1.812-0.25c1.219-0.234,1.516-1.562,1.766-3.312
						c0.297-2.531,0.297-7.312,0.297-13.109v-25.562l-8.938,0.109c-3.75,0.062-5.203,0.5-6.156,1.938
						c-0.688,1.031-0.859,1.453-1.047,1.875c-0.172,0.484-0.359,0.609-0.609,0.609c-0.172,0-0.297-0.188-0.297-0.547
						c0-0.609,1.219-5.797,1.344-6.281c0.109-0.375,0.359-1.156,0.609-1.156c0.406,0,1.016,0.609,2.641,0.734
						c1.766,0.172,4.062,0.297,4.781,0.297h22.672c1.922,0,3.328-0.188,4.281-0.297c0.906-0.188,1.453-0.312,1.688-0.312
						c0.297,0,0.297,0.359,0.297,0.734c0,1.812-0.156,5.984-0.156,6.641c0,0.547-0.203,0.781-0.438,0.781
						c-0.312,0-0.422-0.172-0.484-1.031l-0.062-0.656c-0.234-1.812-1.625-3.203-7.438-3.328l-7.609-0.109V626.028z"/>
					<path fill="#00538D" d="M189.279,626.028c0,5.797,0,10.578,0.297,13.109c0.188,1.75,0.547,3.078,2.359,3.312
						c0.844,0.125,2.188,0.25,2.734,0.25c0.359,0,0.469,0.188,0.469,0.359c0,0.297-0.297,0.484-0.969,0.484
						c-3.328,0-7.125-0.188-7.422-0.188c-0.312,0-4.125,0.188-5.938,0.188c-0.656,0-0.969-0.109-0.969-0.484
						c0-0.172,0.141-0.359,0.5-0.359c0.547,0,1.266-0.125,1.812-0.25c1.203-0.234,1.516-1.562,1.734-3.312
						c0.312-2.531,0.312-7.312,0.312-13.109v-10.641c0-9.422,0-11.109-0.125-13.047c-0.109-2.062-0.719-3.094-2.062-3.391
						c-0.656-0.188-1.438-0.25-1.859-0.25c-0.25,0-0.484-0.125-0.484-0.359c0-0.359,0.312-0.484,0.969-0.484
						c1.984,0,5.797,0.188,6.109,0.188c0.297,0,4.094-0.188,5.906-0.188c0.672,0,0.969,0.125,0.969,0.484
						c0,0.234-0.234,0.359-0.469,0.359c-0.438,0-0.797,0.062-1.516,0.188c-1.641,0.297-2.109,1.328-2.25,3.453
						c-0.109,1.938-0.109,3.625-0.109,13.047V626.028z"/>
					<path fill="#00538D" d="M227.701,597.012c13.594,0,23.75,8.578,23.75,22.656c0,13.547-9.547,24.734-24.109,24.734
						c-16.562,0-23.438-12.875-23.438-23.766C203.904,610.856,211.029,597.012,227.701,597.012z M228.967,642.09
						c5.453,0,16.688-3.141,16.688-20.719c0-14.516-8.812-22.297-18.359-22.297c-10.109,0-17.656,6.641-17.656,19.875
						C209.639,633.043,218.092,642.09,228.967,642.09z"/>
					<path fill="#00538D" d="M267.686,635.325c0.125,4.953,0.734,6.531,2.359,7.016c1.156,0.297,2.484,0.359,3.016,0.359
						c0.312,0,0.484,0.125,0.484,0.359c0,0.375-0.359,0.484-1.078,0.484c-3.438,0-5.859-0.188-6.406-0.188s-3.094,0.188-5.812,0.188
						c-0.594,0-0.953-0.062-0.953-0.484c0-0.234,0.188-0.359,0.484-0.359c0.469,0,1.562-0.062,2.469-0.359
						c1.516-0.422,1.828-2.172,1.828-7.672l0.047-34.625c0-2.359,0.172-3.031,0.672-3.031c0.469,0,1.5,1.328,2.109,1.938
						c0.906,1.031,9.906,10.75,19.219,20.719c5.984,6.422,12.562,13.797,14.5,15.781l-0.672-30.703
						c-0.062-3.922-0.469-5.25-2.344-5.734c-1.094-0.25-2.484-0.312-2.969-0.312c-0.422,0-0.469-0.172-0.469-0.406
						c0-0.375,0.469-0.438,1.188-0.438c2.719,0,5.641,0.188,6.297,0.188s2.656-0.188,5.141-0.188c0.656,0,1.078,0.062,1.078,0.438
						c0,0.234-0.25,0.406-0.656,0.406c-0.312,0-0.719,0-1.469,0.188c-1.984,0.422-2.219,1.75-2.219,5.391l-0.125,35.406
						c0,3.984-0.125,4.281-0.547,4.281c-0.484,0-1.203-0.656-4.406-3.859c-0.672-0.609-9.375-9.484-15.781-16.375
						c-7.016-7.562-13.828-15.172-15.766-17.359L267.686,635.325z"/>
					<path fill="#00538D" d="M331.967,599.372c0.719-2,0.969-2.359,1.328-2.359s0.609,0.297,1.328,2.172
						c0.906,2.297,10.391,27.266,14.078,36.453c2.172,5.375,3.938,6.344,5.203,6.703c0.906,0.297,1.812,0.359,2.422,0.359
						c0.359,0,0.594,0.062,0.594,0.359c0,0.375-0.547,0.484-1.203,0.484c-0.906,0-5.312,0-9.484-0.109
						c-1.156-0.078-1.828-0.078-1.828-0.422c0-0.25,0.188-0.375,0.438-0.438c0.359-0.125,0.719-0.656,0.359-1.625l-5.609-14.859
						c-0.141-0.25-0.25-0.375-0.547-0.375h-13.016c-0.297,0-0.469,0.188-0.594,0.484l-3.609,10.703
						c-0.562,1.516-0.859,2.953-0.859,4.047c0,1.203,1.266,1.75,2.297,1.75h0.594c0.438,0,0.609,0.125,0.609,0.359
						c0,0.375-0.359,0.484-0.906,0.484c-1.438,0-4.047-0.188-4.703-0.188c-0.672,0-4,0.188-6.828,0.188
						c-0.797,0-1.156-0.109-1.156-0.484c0-0.234,0.25-0.359,0.547-0.359c0.422,0,1.266-0.062,1.734-0.125
						c2.797-0.359,4-2.656,5.094-5.672L331.967,599.372z M338.248,623.543c0.297,0,0.297-0.172,0.25-0.422l-5.75-16.312
						c-0.297-0.906-0.609-0.906-0.906,0l-5.312,16.312c-0.125,0.297,0,0.422,0.188,0.422H338.248z"/>
					<path fill="#00538D" d="M370.639,626.137c0,8.891,0.234,12.75,1.328,13.844c0.953,0.969,2.531,1.391,7.25,1.391
						c3.203,0,5.859-0.062,7.297-1.812c0.797-0.969,1.406-2.484,1.594-3.625c0.062-0.484,0.172-0.781,0.531-0.781
						c0.297,0,0.359,0.234,0.359,0.906c0,0.656-0.422,4.297-0.891,6.031c-0.438,1.391-0.609,1.641-3.828,1.641
						c-8.688,0-12.672-0.375-16.188-0.375c-0.234,0-1.266,0.078-2.484,0.078c-1.203,0.047-2.531,0.109-3.438,0.109
						c-0.672,0-0.969-0.109-0.969-0.484c0-0.172,0.125-0.359,0.5-0.359c0.531,0,1.266-0.125,1.797-0.25
						c1.203-0.234,1.516-1.562,1.75-3.312c0.312-2.531,0.312-7.312,0.312-13.109v-10.641c0-9.422,0-11.109-0.125-13.047
						c-0.125-2.062-0.609-3.031-2.609-3.453c-0.469-0.125-1.5-0.188-2.031-0.188c-0.25,0-0.5-0.125-0.5-0.359
						c0-0.359,0.312-0.484,0.969-0.484c2.719,0,6.516,0.188,6.828,0.188c0.297,0,4.719-0.188,6.531-0.188
						c0.672,0,0.969,0.125,0.969,0.484c0,0.234-0.25,0.359-0.484,0.359c-0.422,0-1.281,0.062-2,0.188
						c-1.75,0.297-2.234,1.328-2.359,3.453c-0.109,1.938-0.109,3.625-0.109,13.047V626.137z"/>
					<path fill="#00538D" d="M480.561,633.747c0.312,2.75,0.828,7.031,4.109,8.094c2.219,0.688,4.203,0.688,4.969,0.688
						c0.375,0,0.609,0.078,0.609,0.375c0,0.453-0.688,0.688-1.594,0.688c-1.672,0-9.922-0.234-12.766-0.453
						c-1.734-0.156-2.141-0.375-2.141-0.766c0-0.297,0.172-0.453,0.547-0.531s0.469-1.375,0.297-2.75l-3.656-39.375h-0.219
						l-18.703,39.688c-1.609,3.359-1.828,4.047-2.531,4.047c-0.516,0-0.891-0.766-2.344-3.516c-2-3.734-8.562-16.953-8.938-17.719
						c-0.703-1.359-9.234-19.688-10.078-21.734h-0.297l-3.062,35.406c-0.062,1.219-0.062,2.594-0.062,3.891
						c0,1.141,0.828,2.141,1.969,2.375c1.297,0.297,2.453,0.375,2.906,0.375c0.312,0,0.609,0.156,0.609,0.375
						c0,0.547-0.469,0.688-1.375,0.688c-2.828,0-6.484-0.234-7.094-0.234c-0.688,0-4.359,0.234-6.422,0.234
						c-0.75,0-1.281-0.141-1.281-0.688c0-0.219,0.375-0.375,0.75-0.375c0.609,0,1.156,0,2.297-0.234
						c2.516-0.453,2.75-3.422,3.047-6.328l5.5-49.766c0.141-0.844,0.375-1.375,0.828-1.375c0.469,0,0.781,0.312,1.156,1.141
						l23.344,48.016l22.438-47.922c0.312-0.703,0.609-1.234,1.156-1.234c0.531,0,0.75,0.625,0.906,2.062L480.561,633.747z"/>
					<path fill="#00538D" d="M509.779,599.372c0.719-2,0.953-2.359,1.328-2.359c0.359,0,0.594,0.297,1.312,2.172
						c0.906,2.297,10.406,27.266,14.094,36.453c2.172,5.375,3.922,6.344,5.188,6.703c0.906,0.297,1.812,0.359,2.422,0.359
						c0.359,0,0.609,0.062,0.609,0.359c0,0.375-0.547,0.484-1.219,0.484c-0.906,0-5.312,0-9.484-0.109
						c-1.156-0.078-1.812-0.078-1.812-0.422c0-0.25,0.188-0.375,0.438-0.438c0.359-0.125,0.719-0.656,0.359-1.625l-5.625-14.859
						c-0.125-0.25-0.234-0.375-0.547-0.375h-12.984c-0.328,0-0.484,0.188-0.609,0.484l-3.625,10.703
						c-0.547,1.516-0.844,2.953-0.844,4.047c0,1.203,1.266,1.75,2.281,1.75h0.609c0.438,0,0.609,0.125,0.609,0.359
						c0,0.375-0.359,0.484-0.922,0.484c-1.438,0-4.031-0.188-4.703-0.188c-0.656,0-3.984,0.188-6.828,0.188
						c-0.781,0-1.141-0.109-1.141-0.484c0-0.234,0.234-0.359,0.547-0.359c0.406,0,1.266-0.062,1.75-0.125
						c2.781-0.359,3.984-2.656,5.062-5.672L509.779,599.372z M516.061,623.543c0.297,0,0.297-0.172,0.234-0.422l-5.75-16.312
						c-0.297-0.906-0.594-0.906-0.891,0l-5.328,16.312c-0.109,0.297,0,0.422,0.188,0.422H516.061z"/>
					<path fill="#00538D" d="M543.357,615.387c0-9.422,0-11.109-0.109-13.047c-0.141-2.062-0.609-3.031-2.609-3.453
						c-0.484-0.125-1.516-0.188-2.047-0.188c-0.25,0-0.484-0.125-0.484-0.359c0-0.359,0.297-0.484,0.953-0.484
						c2.734,0,6.531,0.188,6.828,0.188c0.688,0,5.281-0.188,7.141-0.188c3.812,0,7.859,0.359,11.062,2.656
						c1.516,1.094,4.156,4.047,4.156,8.234c0,4.469-1.859,8.938-7.312,13.953c4.969,6.344,9.078,11.719,12.578,15.469
						c3.266,3.453,5.859,4.109,7.375,4.359c1.156,0.172,2,0.172,2.359,0.172c0.297,0,0.547,0.188,0.547,0.359
						c0,0.375-0.359,0.484-1.453,0.484h-4.297c-3.375,0-4.891-0.297-6.469-1.141c-2.578-1.391-4.703-4.344-8.141-8.891
						c-2.547-3.328-5.391-7.375-6.594-8.938c-0.25-0.25-0.422-0.375-0.781-0.375l-7.453-0.109c-0.297,0-0.406,0.172-0.406,0.484
						v1.453c0,5.797,0,10.578,0.297,13.109c0.188,1.75,0.547,3.078,2.359,3.312c0.844,0.125,2.172,0.25,2.703,0.25
						c0.391,0,0.5,0.188,0.5,0.359c0,0.297-0.297,0.484-0.969,0.484c-3.328,0-7.125-0.188-7.438-0.188
						c-0.062,0-3.859,0.188-5.672,0.188c-0.672,0-0.969-0.109-0.969-0.484c0-0.172,0.109-0.359,0.484-0.359
						c0.531,0,1.266-0.125,1.797-0.25c1.219-0.234,1.516-1.562,1.766-3.312c0.297-2.531,0.297-7.312,0.297-13.109V615.387z
						 M548.201,620.637c0,0.312,0.109,0.547,0.406,0.734c0.922,0.531,3.688,0.969,6.359,0.969c1.453,0,3.141-0.188,4.531-1.156
						c2.125-1.453,3.688-4.703,3.688-9.312c0-7.547-3.984-12.078-10.453-12.078c-1.812,0-3.453,0.188-4.047,0.375
						c-0.297,0.109-0.484,0.344-0.484,0.703V620.637z"/>
					<path fill="#00538D" d="M593.982,626.028c0,5.797,0,10.578,0.312,13.109c0.188,1.75,0.547,3.078,2.359,3.312
						c0.828,0.125,2.172,0.25,2.719,0.25c0.359,0,0.469,0.188,0.469,0.359c0,0.297-0.297,0.484-0.953,0.484
						c-3.328,0-7.125-0.188-7.438-0.188c-0.297,0-4.109,0.188-5.906,0.188c-0.688,0-0.984-0.109-0.984-0.484
						c0-0.172,0.125-0.359,0.484-0.359c0.547,0,1.266-0.125,1.812-0.25c1.219-0.234,1.516-1.562,1.766-3.312
						c0.297-2.531,0.297-7.312,0.297-13.109v-10.641c0-9.422,0-11.109-0.125-13.047c-0.125-2.062-0.719-3.094-2.062-3.391
						c-0.656-0.188-1.438-0.25-1.875-0.25c-0.219,0-0.469-0.125-0.469-0.359c0-0.359,0.297-0.484,0.953-0.484
						c2,0,5.812,0.188,6.109,0.188c0.312,0,4.109-0.188,5.922-0.188c0.656,0,0.969,0.125,0.969,0.484
						c0,0.234-0.25,0.359-0.484,0.359c-0.422,0-0.781,0.062-1.5,0.188c-1.656,0.297-2.125,1.328-2.25,3.453
						c-0.125,1.938-0.125,3.625-0.125,13.047V626.028z"/>
					<path fill="#00538D" d="M617.123,635.325c0.125,4.953,0.734,6.531,2.359,7.016c1.156,0.297,2.469,0.359,3.016,0.359
						c0.312,0,0.5,0.125,0.5,0.359c0,0.375-0.375,0.484-1.094,0.484c-3.438,0-5.859-0.188-6.406-0.188s-3.078,0.188-5.812,0.188
						c-0.594,0-0.953-0.062-0.953-0.484c0-0.234,0.188-0.359,0.484-0.359c0.469,0,1.578-0.062,2.484-0.359
						c1.5-0.422,1.812-2.172,1.812-7.672l0.047-34.625c0-2.359,0.172-3.031,0.672-3.031c0.484,0,1.516,1.328,2.109,1.938
						c0.906,1.031,9.906,10.75,19.219,20.719c5.984,6.422,12.562,13.797,14.516,15.781l-0.672-30.703
						c-0.078-3.922-0.484-5.25-2.359-5.734c-1.094-0.25-2.469-0.312-2.969-0.312c-0.422,0-0.469-0.172-0.469-0.406
						c0-0.375,0.469-0.438,1.203-0.438c2.703,0,5.609,0.188,6.281,0.188c0.656,0,2.656-0.188,5.141-0.188
						c0.656,0,1.078,0.062,1.078,0.438c0,0.234-0.234,0.406-0.656,0.406c-0.312,0-0.734,0-1.453,0.188
						c-2,0.422-2.234,1.75-2.234,5.391l-0.109,35.406c0,3.984-0.141,4.281-0.562,4.281c-0.484,0-1.203-0.656-4.406-3.859
						c-0.672-0.609-9.359-9.484-15.781-16.375c-7.016-7.562-13.828-15.172-15.766-17.359L617.123,635.325z"/>
					<path fill="#00538D" d="M672.701,615.387c0-9.422,0-11.109-0.125-13.047c-0.109-2.062-0.594-3.031-2.594-3.453
						c-0.484-0.125-1.5-0.188-2.047-0.188c-0.25,0-0.5-0.125-0.5-0.359c0-0.359,0.297-0.484,0.969-0.484
						c2.719,0,6.531,0.188,6.844,0.188c0.406,0,12.438,0,13.828-0.062c1.156-0.062,2.125-0.188,2.594-0.297
						c0.312-0.062,0.547-0.312,0.859-0.312c0.188,0,0.234,0.25,0.234,0.547c0,0.422-0.297,1.156-0.484,2.844
						c-0.062,0.609-0.172,3.266-0.297,3.984c-0.062,0.312-0.172,0.672-0.422,0.672c-0.359,0-0.484-0.312-0.484-0.797
						c0-0.422-0.062-1.453-0.359-2.172c-0.422-0.969-1.031-1.688-4.297-2.047c-1.031-0.125-7.625-0.188-8.281-0.188
						c-0.25,0-0.359,0.188-0.359,0.609v16.672c0,0.422,0.062,0.609,0.359,0.609c0.797,0,8.219,0,9.609-0.125
						c1.453-0.125,2.297-0.234,2.844-0.844c0.422-0.484,0.672-0.781,0.906-0.781c0.172,0,0.312,0.125,0.312,0.484
						s-0.312,1.391-0.5,3.375c-0.109,1.219-0.234,3.453-0.234,3.875c0,0.484,0,1.141-0.422,1.141c-0.312,0-0.422-0.234-0.422-0.531
						c0-0.609,0-1.219-0.234-2c-0.25-0.844-0.797-1.875-3.141-2.109c-1.641-0.188-7.625-0.312-8.656-0.312
						c-0.312,0-0.422,0.188-0.422,0.438v5.312c0,2.047-0.062,9.062,0,10.328c0.188,4.172,1.094,4.953,7.016,4.953
						c1.562,0,4.234,0,5.797-0.672c1.578-0.656,2.297-1.859,2.719-4.344c0.125-0.656,0.234-0.906,0.531-0.906
						c0.359,0,0.359,0.484,0.359,0.906c0,0.484-0.469,4.594-0.766,5.859c-0.422,1.578-0.906,1.578-3.281,1.578
						c-9.109,0-13.172-0.375-14.906-0.375c-0.141,0-1.156,0.078-2.422,0.078c-1.203,0.047-2.609,0.109-3.516,0.109
						c-0.656,0-0.969-0.109-0.969-0.484c0-0.172,0.141-0.359,0.5-0.359c0.547,0,1.266-0.125,1.812-0.25
						c1.203-0.234,1.516-1.562,1.734-3.312c0.312-2.531,0.312-7.312,0.312-13.109V615.387z"/>
					<path fill="#00538D" d="M132.061,717.95c-1.062-0.531-1.141-0.828-1.141-2.906c0-3.812,0.297-6.859,0.375-8.078
						c0.078-0.844,0.234-1.234,0.609-1.234c0.469,0,0.547,0.234,0.547,0.844c0,0.688,0,1.75,0.234,2.828
						c1.125,5.641,6.172,7.781,11.281,7.781c7.328,0,10.922-5.266,10.922-10.141c0-5.266-2.219-8.328-8.797-13.75l-3.422-2.812
						c-8.094-6.641-9.922-11.375-9.922-16.562c0-8.172,6.109-13.734,15.797-13.734c2.984,0,5.188,0.297,7.094,0.75
						c1.453,0.312,2.062,0.391,2.672,0.391s0.781,0.156,0.781,0.531s-0.312,2.906-0.312,8.094c0,1.219-0.156,1.75-0.531,1.75
						c-0.469,0-0.547-0.391-0.625-1c-0.062-0.906-0.531-2.969-0.984-3.812c-0.469-0.828-2.531-4.047-9.531-4.047
						c-5.281,0-9.391,3.281-9.391,8.859c0,4.344,2.125,6.953,9.297,12.812l2.141,1.688c9.016,7.094,11.156,11.828,11.156,17.938
						c0,3.125-1.219,8.922-6.5,12.672c-3.281,2.281-7.406,3.203-11.516,3.203C138.701,720.012,135.201,719.481,132.061,717.95z"/>
					<path fill="#00538D" d="M186.311,674.715c0.734-2,0.969-2.359,1.344-2.359c0.359,0,0.594,0.312,1.312,2.188
						c0.906,2.297,10.406,27.25,14.094,36.438c2.172,5.375,3.922,6.344,5.188,6.703c0.906,0.297,1.828,0.375,2.422,0.375
						c0.359,0,0.609,0.047,0.609,0.359c0,0.359-0.547,0.469-1.203,0.469c-0.922,0-5.344,0-9.5-0.109
						c-1.156-0.062-1.812-0.062-1.812-0.422c0-0.25,0.172-0.375,0.422-0.422c0.359-0.125,0.734-0.672,0.359-1.641l-5.625-14.875
						c-0.109-0.234-0.234-0.344-0.547-0.344h-12.984c-0.297,0-0.484,0.172-0.609,0.469l-3.625,10.703
						c-0.547,1.516-0.828,2.953-0.828,4.047c0,1.219,1.266,1.766,2.281,1.766h0.609c0.422,0,0.609,0.109,0.609,0.359
						c0,0.359-0.359,0.469-0.906,0.469c-1.469,0-4.062-0.172-4.719-0.172c-0.672,0-3.984,0.172-6.844,0.172
						c-0.766,0-1.125-0.109-1.125-0.469c0-0.25,0.219-0.359,0.531-0.359c0.422,0,1.281-0.078,1.75-0.125
						c2.781-0.359,3.984-2.656,5.078-5.688L186.311,674.715z M192.607,698.887c0.297,0,0.297-0.172,0.234-0.422l-5.75-16.312
						c-0.297-0.906-0.594-0.906-0.906,0l-5.312,16.312c-0.125,0.312,0,0.422,0.172,0.422H192.607z"/>
					<path fill="#00538D" d="M221.529,710.684c0.125,4.953,0.719,6.516,2.359,7c1.141,0.297,2.484,0.375,3.031,0.375
						c0.297,0,0.469,0.109,0.469,0.359c0,0.359-0.359,0.469-1.078,0.469c-3.453,0-5.875-0.172-6.406-0.172
						c-0.547,0-3.078,0.172-5.797,0.172c-0.609,0-0.969-0.047-0.969-0.469c0-0.25,0.172-0.359,0.469-0.359
						c0.5,0,1.578-0.078,2.484-0.375c1.516-0.422,1.812-2.172,1.812-7.672l0.062-34.625c0-2.359,0.188-3.031,0.672-3.031
						c0.469,0,1.516,1.344,2.109,1.938c0.906,1.031,9.906,10.766,19.219,20.734c5.984,6.391,12.562,13.766,14.5,15.766
						l-0.672-30.703c-0.047-3.922-0.469-5.25-2.359-5.734c-1.078-0.25-2.469-0.312-2.938-0.312c-0.438,0-0.5-0.172-0.5-0.422
						c0-0.359,0.5-0.406,1.219-0.406c2.719,0,5.609,0.172,6.281,0.172s2.656-0.172,5.125-0.172c0.688,0,1.094,0.047,1.094,0.406
						c0,0.25-0.234,0.422-0.656,0.422c-0.297,0-0.734,0-1.453,0.188c-1.984,0.422-2.234,1.766-2.234,5.375l-0.125,35.422
						c0,3.984-0.125,4.297-0.531,4.297c-0.5,0-1.219-0.672-4.422-3.875c-0.672-0.609-9.359-9.484-15.766-16.375
						c-7.016-7.562-13.844-15.172-15.781-17.344L221.529,710.684z"/>
					<path fill="#00538D" d="M277.529,713.215c-5.859-5.25-7.312-12.141-7.312-17.891c0-4.047,1.391-11.125,6.781-16.5
						c3.609-3.625,9.109-6.469,18.422-6.469c2.422,0,5.812,0.188,8.766,0.734c2.297,0.422,4.234,0.781,6.156,0.906
						c0.656,0.047,0.797,0.297,0.797,0.656c0,0.484-0.188,1.219-0.312,3.391c-0.125,1.984-0.125,5.328-0.188,6.234
						c-0.047,0.906-0.172,1.25-0.547,1.25c-0.406,0-0.469-0.422-0.469-1.25c0-2.375-0.969-4.844-2.531-6.172
						c-2.125-1.812-6.766-3.453-12.094-3.453c-8.047,0-11.781,2.359-13.906,4.422c-4.406,4.219-5.438,9.594-5.438,15.766
						c0,11.547,8.891,22.125,21.812,22.125c4.531,0,8.109-0.547,10.531-3.031c1.266-1.328,2.047-3.984,2.234-5.062
						c0.109-0.672,0.234-0.906,0.594-0.906c0.312,0,0.422,0.422,0.422,0.906c0,0.422-0.719,5.672-1.328,7.719
						c-0.359,1.156-0.484,1.281-1.562,1.766c-2.422,0.969-7.016,1.391-10.891,1.391
						C288.404,719.747,282.311,717.512,277.529,713.215z"/>
					<path fill="#00538D" d="M338.607,701.372c0,5.797,0,10.578,0.312,13.109c0.188,1.75,0.547,3.094,2.359,3.328
						c0.844,0.125,2.172,0.25,2.719,0.25c0.359,0,0.469,0.172,0.469,0.359c0,0.297-0.297,0.469-0.953,0.469
						c-3.328,0-7.141-0.172-7.438-0.172s-4.109,0.172-5.922,0.172c-0.656,0-0.969-0.109-0.969-0.469
						c0-0.188,0.125-0.359,0.484-0.359c0.547,0,1.266-0.125,1.812-0.25c1.203-0.234,1.516-1.578,1.766-3.328
						c0.297-2.531,0.297-7.312,0.297-13.109v-25.578l-8.953,0.125c-3.75,0.078-5.188,0.484-6.156,1.938
						c-0.672,1.031-0.844,1.453-1.031,1.875c-0.172,0.484-0.359,0.609-0.609,0.609c-0.172,0-0.297-0.188-0.297-0.547
						c0-0.594,1.203-5.797,1.328-6.281c0.125-0.359,0.359-1.156,0.609-1.156c0.422,0,1.016,0.609,2.656,0.734
						c1.75,0.172,4.047,0.297,4.781,0.297h22.656c1.938,0,3.312-0.172,4.297-0.297c0.906-0.188,1.438-0.312,1.688-0.312
						c0.297,0,0.297,0.375,0.297,0.734c0,1.812-0.172,5.969-0.172,6.641c0,0.547-0.188,0.797-0.438,0.797
						c-0.297,0-0.406-0.188-0.469-1.031l-0.078-0.672c-0.219-1.812-1.625-3.203-7.422-3.328l-7.625-0.125V701.372z"/>
					<path fill="#00538D" d="M363.982,690.731c0-9.438,0-11.125-0.109-13.047c-0.141-2.062-0.609-3.031-2.609-3.453
						c-0.469-0.125-1.516-0.188-2.062-0.188c-0.234,0-0.469-0.109-0.469-0.344c0-0.375,0.297-0.484,0.953-0.484
						c2.734,0,6.422,0.172,6.969,0.172c0.531,0,4.156-0.172,5.969-0.172c0.656,0,0.969,0.109,0.969,0.484
						c0,0.234-0.25,0.344-0.484,0.344c-0.422,0-0.781,0.062-1.5,0.188c-1.656,0.25-2.125,1.328-2.234,3.453
						c-0.125,1.922-0.125,3.609-0.125,13.047v8.469c0,8.703,1.922,12.438,4.531,14.922c2.969,2.781,5.672,3.328,9.125,3.328
						c3.688,0,7.297-1.766,9.5-4.359c2.766-3.438,3.484-8.578,3.484-14.812v-7.547c0-9.438,0-11.125-0.109-13.047
						c-0.125-2.062-0.609-3.031-2.609-3.453c-0.484-0.125-1.516-0.188-2.062-0.188c-0.219,0-0.469-0.109-0.469-0.344
						c0-0.375,0.297-0.484,0.969-0.484c2.719,0,6.047,0.172,6.406,0.172c0.422,0,3.25-0.172,5.062-0.172
						c0.656,0,0.969,0.109,0.969,0.484c0,0.234-0.234,0.344-0.469,0.344c-0.422,0-0.797,0-1.516,0.188
						c-1.625,0.312-2.125,1.328-2.234,3.453c-0.125,1.922-0.125,3.609-0.125,13.047v6.469c0,6.531-0.719,13.781-5.562,18.078
						c-4.359,3.859-8.891,4.469-12.438,4.469c-2.062,0-8.172-0.25-12.453-4.297c-2.969-2.844-5.266-7.062-5.266-15.891V690.731z"/>
					<path fill="#00538D" d="M426.326,674.715c0.719-2,0.969-2.359,1.328-2.359c0.375,0,0.609,0.312,1.344,2.188
						c0.906,2.297,10.391,27.25,14.078,36.438c2.172,5.375,3.922,6.344,5.188,6.703c0.906,0.297,1.812,0.375,2.422,0.375
						c0.375,0,0.609,0.047,0.609,0.359c0,0.359-0.547,0.469-1.219,0.469c-0.906,0-5.312,0-9.469-0.109
						c-1.156-0.062-1.812-0.062-1.812-0.422c0-0.25,0.172-0.375,0.406-0.422c0.359-0.125,0.719-0.672,0.359-1.641l-5.609-14.875
						c-0.125-0.234-0.25-0.344-0.547-0.344h-13c-0.297,0-0.484,0.172-0.594,0.469l-3.641,10.703
						c-0.531,1.516-0.844,2.953-0.844,4.047c0,1.219,1.266,1.766,2.312,1.766h0.594c0.422,0,0.609,0.109,0.609,0.359
						c0,0.359-0.375,0.469-0.906,0.469c-1.453,0-4.062-0.172-4.719-0.172c-0.672,0-4,0.172-6.828,0.172
						c-0.781,0-1.156-0.109-1.156-0.469c0-0.25,0.25-0.359,0.547-0.359c0.422,0,1.266-0.078,1.766-0.125
						c2.781-0.359,3.984-2.656,5.062-5.688L426.326,674.715z M432.623,698.887c0.281,0,0.281-0.172,0.234-0.422l-5.734-16.312
						c-0.297-0.906-0.609-0.906-0.906,0l-5.328,16.312c-0.109,0.312,0,0.422,0.188,0.422H432.623z"/>
					<path fill="#00538D" d="M459.92,690.731c0-9.438,0-11.125-0.125-13.047c-0.109-2.062-0.594-3.031-2.578-3.453
						c-0.5-0.125-1.516-0.188-2.062-0.188c-0.25,0-0.5-0.109-0.5-0.344c0-0.375,0.312-0.484,0.969-0.484
						c2.719,0,6.531,0.172,6.844,0.172c0.656,0,5.25-0.172,7.125-0.172c3.797,0,7.859,0.359,11.062,2.656
						c1.516,1.078,4.172,4.047,4.172,8.203c0,4.484-1.891,8.953-7.312,13.969c4.953,6.344,9.062,11.734,12.562,15.469
						c3.266,3.453,5.875,4.109,7.375,4.359c1.141,0.188,2,0.188,2.359,0.188c0.297,0,0.547,0.172,0.547,0.359
						c0,0.359-0.375,0.469-1.469,0.469h-4.281c-3.391,0-4.891-0.297-6.469-1.141c-2.594-1.391-4.703-4.359-8.141-8.875
						c-2.547-3.328-5.391-7.375-6.609-8.953c-0.234-0.234-0.406-0.359-0.766-0.359l-7.438-0.125c-0.297,0-0.438,0.188-0.438,0.484
						v1.453c0,5.797,0,10.578,0.312,13.109c0.188,1.75,0.547,3.094,2.359,3.328c0.844,0.125,2.172,0.25,2.719,0.25
						c0.359,0,0.469,0.172,0.469,0.359c0,0.297-0.297,0.469-0.953,0.469c-3.328,0-7.141-0.172-7.438-0.172
						c-0.062,0-3.875,0.172-5.688,0.172c-0.656,0-0.969-0.109-0.969-0.469c0-0.188,0.141-0.359,0.5-0.359
						c0.547,0,1.266-0.125,1.812-0.25c1.203-0.234,1.516-1.578,1.734-3.328c0.312-2.531,0.312-7.312,0.312-13.109V690.731z
						 M464.748,695.997c0,0.297,0.141,0.547,0.438,0.719c0.906,0.547,3.688,0.969,6.344,0.969c1.453,0,3.125-0.188,4.531-1.141
						c2.109-1.453,3.688-4.719,3.688-9.312c0-7.547-4-12.094-10.453-12.094c-1.812,0-3.453,0.188-4.047,0.375
						c-0.312,0.109-0.5,0.359-0.5,0.719V695.997z"/>
					<path fill="#00538D" d="M510.545,701.372c0,5.797,0,10.578,0.297,13.109c0.188,1.75,0.562,3.094,2.375,3.328
						c0.844,0.125,2.172,0.25,2.719,0.25c0.359,0,0.469,0.172,0.469,0.359c0,0.297-0.297,0.469-0.969,0.469
						c-3.312,0-7.125-0.172-7.422-0.172s-4.109,0.172-5.922,0.172c-0.656,0-0.969-0.109-0.969-0.469
						c0-0.188,0.125-0.359,0.484-0.359c0.547,0,1.266-0.125,1.812-0.25c1.203-0.234,1.516-1.578,1.75-3.328
						c0.312-2.531,0.312-7.312,0.312-13.109v-10.641c0-9.438,0-11.125-0.141-13.047c-0.109-2.062-0.719-3.094-2.031-3.391
						c-0.672-0.188-1.469-0.25-1.875-0.25c-0.25,0-0.5-0.109-0.5-0.344c0-0.375,0.312-0.484,0.969-0.484
						c2,0,5.812,0.172,6.109,0.172s4.109-0.172,5.922-0.172c0.672,0,0.953,0.109,0.953,0.484c0,0.234-0.219,0.344-0.469,0.344
						c-0.422,0-0.797,0.062-1.516,0.188c-1.625,0.312-2.109,1.328-2.234,3.453c-0.125,1.922-0.125,3.609-0.125,13.047V701.372z"/>
					<path fill="#00538D" d="M532.045,690.731c0-9.438,0-11.125-0.109-13.047c-0.109-2.062-0.609-3.031-2.594-3.453
						c-0.484-0.125-1.516-0.188-2.062-0.188c-0.234,0-0.484-0.109-0.484-0.344c0-0.375,0.297-0.484,0.969-0.484
						c2.719,0,6.531,0.172,6.828,0.172c0.422,0,12.453,0,13.844-0.062c1.141-0.062,2.125-0.172,2.594-0.297
						c0.297-0.062,0.547-0.312,0.844-0.312c0.203,0,0.25,0.25,0.25,0.547c0,0.438-0.297,1.156-0.484,2.844
						c-0.062,0.609-0.172,3.266-0.312,3.984c-0.047,0.297-0.172,0.672-0.406,0.672c-0.359,0-0.5-0.297-0.5-0.781
						c0-0.422-0.047-1.453-0.359-2.188c-0.406-0.953-1.016-1.688-4.281-2.047c-1.031-0.125-7.625-0.188-8.281-0.188
						c-0.25,0-0.359,0.188-0.359,0.609v16.688c0,0.406,0.047,0.594,0.359,0.594c0.797,0,8.219,0,9.594-0.109
						c1.453-0.125,2.312-0.25,2.859-0.859c0.422-0.484,0.656-0.781,0.906-0.781c0.172,0,0.297,0.125,0.297,0.484
						s-0.297,1.391-0.484,3.375c-0.109,1.219-0.25,3.453-0.25,3.875c0,0.484,0,1.156-0.406,1.156c-0.312,0-0.438-0.25-0.438-0.547
						c0-0.609,0-1.219-0.234-2c-0.234-0.844-0.797-1.875-3.156-2.109c-1.625-0.188-7.594-0.297-8.641-0.297
						c-0.297,0-0.406,0.172-0.406,0.406v5.328c0,2.047-0.062,9.062,0,10.328c0.188,4.188,1.078,4.969,7,4.969
						c1.578,0,4.25,0,5.812-0.672s2.297-1.875,2.703-4.359c0.125-0.656,0.25-0.906,0.547-0.906c0.359,0,0.359,0.484,0.359,0.906
						c0,0.484-0.469,4.594-0.781,5.875c-0.406,1.562-0.906,1.562-3.266,1.562c-9.109,0-13.172-0.359-14.922-0.359
						c-0.125,0-1.141,0.062-2.406,0.062c-1.219,0.062-2.609,0.109-3.516,0.109c-0.672,0-0.969-0.109-0.969-0.469
						c0-0.188,0.125-0.359,0.484-0.359c0.547,0,1.281-0.125,1.812-0.25c1.219-0.234,1.516-1.578,1.75-3.328
						c0.297-2.531,0.297-7.312,0.297-13.109V690.731z"/>
					<path fill="#00538D" d="M565.045,718.106c-0.859-0.422-0.906-0.656-0.906-2.297c0-3.016,0.25-5.422,0.297-6.406
						c0.062-0.656,0.172-0.969,0.469-0.969c0.375,0,0.438,0.188,0.438,0.672c0,0.547,0,1.391,0.172,2.234
						c0.906,4.469,4.891,6.172,8.938,6.172c5.812,0,8.656-4.172,8.656-8.047c0-4.172-1.75-6.578-6.953-10.875l-2.719-2.234
						c-6.406-5.266-7.844-9-7.844-13.109c0-6.469,4.812-10.891,12.5-10.891c2.359,0,4.109,0.25,5.625,0.609
						c1.141,0.25,1.625,0.297,2.125,0.297c0.469,0,0.578,0.125,0.578,0.438c0,0.297-0.219,2.297-0.219,6.391
						c0,0.969-0.141,1.406-0.438,1.406c-0.359,0-0.422-0.312-0.469-0.797c-0.062-0.719-0.438-2.359-0.797-3.016
						c-0.359-0.672-1.984-3.203-7.547-3.203c-4.172,0-7.453,2.594-7.453,7.016c0,3.438,1.703,5.484,7.375,10.141l1.703,1.328
						c7.125,5.625,8.828,9.375,8.828,14.203c0,2.484-0.984,7.078-5.141,10.031c-2.609,1.812-5.859,2.547-9.125,2.547
						C570.295,719.747,567.514,719.325,565.045,718.106z"/>
					<path fill="#00538D" d="M646.248,13.809c0,5.922-4.859,10.516-10.5,10.516c-5.766,0-10.562-4.656-10.562-10.516
						c0-5.906,4.75-10.609,10.562-10.609C641.451,3.2,646.248,7.856,646.248,13.809z M627.451,13.809
						c0,4.812,3.859,8.391,8.297,8.391c4.484,0,8.234-3.641,8.234-8.391c0-4.734-3.703-8.484-8.234-8.484
						C631.201,5.325,627.451,9.012,627.451,13.809z M636.107,7.793c1.531,0,4.125,0.469,4.125,3.172c0,2-1.422,2.641-2.109,2.953
						l2.312,5.5h-2.266l-2.016-4.922h-1.719v4.922h-2.172V7.793H636.107z M634.436,9.325v3.641h1.531c1.203,0,2.109-0.578,2.109-2
						c0-1-0.703-1.641-2.016-1.641H634.436z"/>
				</g>
			</g>
		</g>
	</g>
</g>
</svg>
